<svg width="30" height="30" viewBox="0 0 30 30" fill="none" xmlns="http://www.w3.org/2000/svg">
<path d="M12.2518 24.2714C14.8965 24.2714 17.3659 23.4193 19.3734 21.9989L26.9251 29.4792C27.2757 29.8264 27.7377 30 28.2156 30C29.2512 30 30 29.2109 30 28.2009C30 27.7275 29.8407 27.2856 29.4902 26.9385L21.9862 19.4897C23.5635 17.4382 24.5035 14.8974 24.5035 12.1357C24.5035 5.46028 18.991 0 12.2518 0C5.49658 0 3.05176e-05 5.46028 3.05176e-05 12.1357C3.05176e-05 18.8112 5.49658 24.2714 12.2518 24.2714ZM12.2518 21.6518C6.97826 21.6518 2.64475 17.3435 2.64475 12.1357C2.64475 6.92793 6.97826 2.61967 12.2518 2.61967C17.5093 2.61967 21.8588 6.92793 21.8588 12.1357C21.8588 17.3435 17.5093 21.6518 12.2518 21.6518Z" fill="#B49150"/>
</svg>
