<svg width="35" height="35" viewBox="0 0 35 35" fill="none" xmlns="http://www.w3.org/2000/svg">
<path d="M15.8481 35H19.1519C20.4112 35 21.3762 34.2306 21.6706 33.0192L22.3738 29.9579L22.8972 29.7778L25.5631 31.4149C26.6262 32.0861 27.8528 31.9224 28.7523 31.022L31.0421 28.7465C31.9416 27.8461 32.1051 26.602 31.4346 25.5543L29.7664 22.9022L29.9626 22.4111L33.021 21.6908C34.215 21.3962 35 20.4139 35 19.1698V15.9284C35 14.6843 34.2313 13.7021 33.021 13.4074L29.9953 12.6707L29.7827 12.1469L31.4509 9.49485C32.1215 8.44715 31.9579 7.21936 31.0584 6.30262L28.7687 4.01076C27.8855 3.12675 26.6589 2.96305 25.5958 3.61787L22.9299 5.25491L22.3738 5.0421L21.6706 1.98082C21.3762 0.769411 20.4112 0 19.1519 0H15.8481C14.5888 0 13.6238 0.769411 13.3294 1.98082L12.6098 5.0421L12.0537 5.25491L9.40421 3.61787C8.34112 2.96305 7.09813 3.12675 6.21495 4.01076L3.94159 6.30262C3.04206 7.21936 2.86215 8.44715 3.54907 9.49485L5.20093 12.1469L5.00467 12.6707L1.97897 13.4074C0.768692 13.7021 0 14.6843 0 15.9284V19.1698C0 20.4139 0.785047 21.3962 1.97897 21.6908L5.03738 22.4111L5.21729 22.9022L3.56542 25.5543C2.8785 26.602 3.05841 27.8461 3.95794 28.7465L6.23131 31.022C7.13084 31.9224 8.37383 32.0861 9.43692 31.4149L12.0864 29.7778L12.6098 29.9579L13.3294 33.0192C13.6238 34.2306 14.5888 35 15.8481 35ZM16.1098 32.4462C15.8318 32.4462 15.6846 32.3316 15.6355 32.0697L14.6542 28.0098C13.6565 27.7643 12.7243 27.3714 12.021 26.9294L8.45561 29.123C8.25935 29.2703 8.04673 29.2376 7.85047 29.0412L5.92056 27.1094C5.74065 26.9294 5.7243 26.7329 5.85514 26.5037L8.04673 22.9677C7.67056 22.2802 7.24533 21.3471 6.98364 20.3485L2.92757 19.3826C2.66589 19.3335 2.5514 19.1862 2.5514 18.9079V16.174C2.5514 15.8793 2.64953 15.7484 2.92757 15.6993L6.96729 14.717C7.22897 13.6529 7.71963 12.6871 8.01402 12.0814L5.83878 8.54537C5.69159 8.29981 5.70794 8.10337 5.88785 7.90692L7.83411 6.00795C8.03037 5.81151 8.21028 5.77877 8.45561 5.9261L11.9883 8.07063C12.6916 7.67774 13.6893 7.26848 14.6706 6.99018L15.6355 2.93031C15.6846 2.66838 15.8318 2.55379 16.1098 2.55379H18.8902C19.1682 2.55379 19.3154 2.66838 19.3481 2.93031L20.3458 7.02292C21.3598 7.28485 22.243 7.69411 22.979 8.087L26.528 5.9261C26.7897 5.77877 26.9533 5.81151 27.1659 6.00795L29.0958 7.90692C29.2921 8.10337 29.2921 8.29981 29.1449 8.54537L26.9696 12.0814C27.2804 12.6871 27.7547 13.6529 28.0164 14.717L32.0724 15.6993C32.3341 15.7484 32.4486 15.8793 32.4486 16.174V18.9079C32.4486 19.1862 32.3178 19.3335 32.0724 19.3826L28 20.3485C27.7383 21.3471 27.3294 22.2802 26.9369 22.9677L29.1285 26.5037C29.2593 26.7329 29.2593 26.9294 29.0631 27.1094L27.1495 29.0412C26.9369 29.2376 26.7407 29.2703 26.528 29.123L22.9626 26.9294C22.2593 27.3714 21.3435 27.7643 20.3458 28.0098L19.3481 32.0697C19.3154 32.3316 19.1682 32.4462 18.8902 32.4462H16.1098ZM17.5 23.7535C20.9182 23.7535 23.7313 20.9378 23.7313 17.5C23.7313 14.0949 20.9182 11.2792 17.5 11.2792C14.0818 11.2792 11.2523 14.0949 11.2523 17.5C11.2523 20.9214 14.0654 23.7535 17.5 23.7535ZM17.5 21.2161C15.472 21.2161 13.8037 19.5463 13.8037 17.5C13.8037 15.4864 15.472 13.8167 17.5 13.8167C19.4953 13.8167 21.1636 15.4864 21.1636 17.5C21.1636 19.5299 19.4953 21.2161 17.5 21.2161Z" fill="#B49150"/>
</svg>
