<svg width="85" height="81" viewBox="0 0 85 81" fill="none" xmlns="http://www.w3.org/2000/svg">
<path d="M17.9551 78.4232C19.3085 79.4198 20.944 79.1066 22.946 77.6259L42.5711 63.1044L62.1962 77.6259C64.1982 79.1066 65.8619 79.4198 67.1871 78.4232C68.4842 77.4266 68.7944 75.7752 68.0048 73.3834L60.307 50.092L80.0732 35.7412C82.0752 34.2891 82.8647 32.78 82.3289 31.1855C81.8214 29.6479 80.3551 28.8222 77.8174 28.8506L53.568 28.993L46.1521 5.61615C45.3908 3.19589 44.2065 2 42.5711 2C40.9357 2 39.7514 3.19589 38.9901 5.61615L31.5743 28.993L7.32481 28.8506C4.81527 28.8222 3.32083 29.6479 2.81328 31.1855C2.27754 32.78 3.06705 34.2891 5.06904 35.7412L24.8352 50.092L17.1656 73.3834C16.3479 75.7752 16.658 77.4266 17.9551 78.4232Z" fill="#8E6821" fill-opacity="0.8" stroke="#EDE091" stroke-width="4" stroke-linecap="round" stroke-linejoin="round"/>
</svg>
