<svg width="85" height="81" viewBox="0 0 85 81" fill="none" xmlns="http://www.w3.org/2000/svg">
<path d="M17.7234 78.4232C19.0769 79.4198 20.7123 79.1066 22.7143 77.6259L42.3394 63.1044L61.9646 77.6259C63.9666 79.1066 65.6302 79.4198 66.9554 78.4232C68.2525 77.4266 68.5627 75.7752 67.7732 73.3834L60.0754 50.092L79.8415 35.7412C81.8435 34.2891 82.633 32.78 82.0972 31.1855C81.5897 29.6479 80.1235 28.8222 77.5857 28.8506L53.3363 28.993L45.9204 5.61615C45.1591 3.19589 43.9748 2 42.3394 2C40.704 2 39.5197 3.19589 38.7584 5.61615L31.3426 28.993L7.09312 28.8506C4.58358 28.8222 3.08914 29.6479 2.58159 31.1855C2.04585 32.78 2.83536 34.2891 4.83735 35.7412L24.6035 50.092L16.9339 73.3834C16.1162 75.7752 16.4263 77.4266 17.7234 78.4232Z" stroke="#EDE091" stroke-width="4" stroke-linecap="round" stroke-linejoin="round"/>
</svg>
