<svg width="85" height="81" viewBox="0 0 85 81" fill="none" xmlns="http://www.w3.org/2000/svg">
<path d="M17.6991 78.4232C19.0526 79.4198 20.688 79.1066 22.69 77.6259L42.3151 63.1044L61.9403 77.6259C63.9423 79.1066 65.6059 79.4198 66.9311 78.4232C68.2282 77.4266 68.5384 75.7752 67.7489 73.3834L60.0511 50.092L79.8172 35.7412C81.8192 34.2891 82.6087 32.78 82.073 31.1855C81.5654 29.6479 80.0992 28.8222 77.5614 28.8506L53.312 28.993L45.8962 5.61615C45.1348 3.19589 43.9506 2 42.3151 2C40.6797 2 39.4954 3.19589 38.7341 5.61615L31.3183 28.993L7.06882 28.8506C4.55929 28.8222 3.06484 29.6479 2.5573 31.1855C2.02155 32.78 2.81107 34.2891 4.81306 35.7412L24.5792 50.092L16.9096 73.3834C16.0919 75.7752 16.402 77.4266 17.6991 78.4232Z" fill="#EDE091" stroke="#EDE091" stroke-width="4" stroke-linecap="round" stroke-linejoin="round"/>
</svg>
