<svg width="80" height="80" viewBox="0 0 80 80" fill="none" xmlns="http://www.w3.org/2000/svg">
<path fill-rule="evenodd" clip-rule="evenodd" d="M40.0331 0.5C17.8958 0.5 0 18.6041 0 41.0013C0 58.9046 11.4665 74.0594 27.3735 79.4231C29.3623 79.8264 30.0908 78.5517 30.0908 77.4794C30.0908 76.5405 30.0252 73.3221 30.0252 69.9687C18.889 72.3831 16.57 65.1407 16.57 65.1407C14.7803 60.4468 12.1286 59.2404 12.1286 59.2404C8.4837 56.7593 12.3941 56.7593 12.3941 56.7593C16.4372 57.0276 18.5588 60.9166 18.5588 60.9166C22.1373 67.0852 27.9037 65.3423 30.2235 64.2692C30.5546 61.654 31.6158 59.8436 32.7425 58.838C23.8606 57.899 14.5156 54.4123 14.5156 38.8552C14.5156 34.4295 16.1053 30.8087 18.6243 27.9927C18.2269 26.9871 16.8346 22.8289 19.0226 17.2636C19.0226 17.2636 22.4028 16.1905 30.0244 21.4209C33.2875 20.5344 36.6527 20.0834 40.0331 20.0796C43.4133 20.0796 46.8591 20.5495 50.041 21.4209C57.6634 16.1905 61.0436 17.2636 61.0436 17.2636C63.2315 22.8289 61.8385 26.9871 61.4411 27.9927C64.0264 30.8087 65.5506 34.4295 65.5506 38.8552C65.5506 54.4123 56.2056 57.8315 47.2573 58.838C48.7159 60.1118 49.9746 62.5254 49.9746 66.3479C49.9746 71.7791 49.909 76.1381 49.909 77.4786C49.909 78.5517 50.6383 79.8264 52.6263 79.424C68.5333 74.0586 79.9998 58.9046 79.9998 41.0013C80.0654 18.6041 62.104 0.5 40.0331 0.5Z" fill="white"/>
</svg>
