<svg width="80" height="80" viewBox="0 0 80 80" fill="none" xmlns="http://www.w3.org/2000/svg">
<path d="M39.9835 0C17.8692 0 0 17.9021 0 39.9835C0 56.9313 10.5306 71.411 25.4052 77.2357C25.0432 74.0765 24.747 69.2061 25.5368 65.7507C26.2608 62.6244 30.2098 45.8742 30.2098 45.8742C30.2098 45.8742 29.0251 43.4718 29.0251 39.9506C29.0251 34.3891 32.2501 30.2427 36.2649 30.2427C39.6874 30.2427 41.3328 32.8095 41.3328 35.87C41.3328 39.2925 39.1608 44.4262 38.009 49.1978C37.0547 53.1798 40.0165 56.4377 43.9326 56.4377C51.0407 56.4377 56.5035 48.9346 56.5035 38.1407C56.5035 28.5644 49.6257 21.884 39.7861 21.884C28.3998 21.884 21.7194 30.4072 21.7194 39.2266C21.7194 42.6491 23.0358 46.3348 24.6812 48.3422C25.0103 48.7371 25.0432 49.0991 24.9445 49.494C24.6483 50.7446 23.9572 53.4759 23.8256 54.0354C23.661 54.7594 23.2332 54.9239 22.4763 54.5619C17.5401 52.1925 14.4467 44.8869 14.4467 39.0292C14.4467 26.4254 23.5952 14.8416 40.8721 14.8416C54.7265 14.8416 65.5204 24.7141 65.5204 37.9432C65.5204 51.7318 56.8326 62.8219 44.7882 62.8219C40.7404 62.8219 36.923 60.7158 35.6397 58.2147C35.6397 58.2147 33.6322 65.8494 33.1386 67.7252C32.2501 71.2135 29.8149 75.5574 28.1694 78.223C31.921 79.3747 35.87 80 40.0165 80C62.0979 80 80 62.0979 80 40.0165C79.9671 17.9021 62.065 0 39.9835 0Z" fill="white"/>
</svg>
