<svg width="80" height="80" viewBox="0 0 80 80" fill="none" xmlns="http://www.w3.org/2000/svg">
<path fill-rule="evenodd" clip-rule="evenodd" d="M80 40C80 62.0914 62.0914 80 40 80C17.9086 80 0 62.0914 0 40C0 17.9086 17.9086 0 40 0C62.0914 0 80 17.9086 80 40ZM41.4333 29.5298C37.5428 31.148 29.767 34.4974 18.1062 39.5778C16.2127 40.3308 15.2208 41.0674 15.1305 41.7877C14.9779 43.0051 16.5023 43.4844 18.5782 44.1371C18.8605 44.2259 19.1531 44.3179 19.4531 44.4154C21.4954 45.0793 24.2427 45.856 25.6709 45.8868C26.9664 45.9148 28.4123 45.3807 30.0087 44.2845C40.9038 36.9301 46.5279 33.2127 46.881 33.1326C47.1301 33.0761 47.4753 33.005 47.7091 33.2129C47.943 33.4208 47.92 33.8144 47.8953 33.9201C47.7442 34.5639 41.7603 40.127 38.6637 43.006C37.6983 43.9035 37.0135 44.5401 36.8735 44.6855C36.5599 45.0112 36.2403 45.3193 35.9332 45.6154C34.0358 47.4445 32.613 48.8161 36.012 51.056C37.6454 52.1324 38.9524 53.0225 40.2564 53.9105C41.6805 54.8803 43.1009 55.8476 44.9386 57.0523C45.4068 57.3592 45.854 57.678 46.2895 57.9885C47.9468 59.17 49.4357 60.2315 51.2752 60.0622C52.3441 59.9638 53.4481 58.9588 54.0088 55.9613C55.334 48.8772 57.9387 33.5282 58.5406 27.2033C58.5934 26.6491 58.527 25.9399 58.4738 25.6286C58.4205 25.3173 58.3091 24.8737 57.9045 24.5454C57.4252 24.1565 56.6854 24.0745 56.3545 24.0803C54.85 24.1068 52.5418 24.9094 41.4333 29.5298Z" fill="white"/>
</svg>
